<svg width="60" height="60" viewBox="0 0 60 60" fill="none" xmlns="http://www.w3.org/2000/svg">
<path fill-rule="evenodd" clip-rule="evenodd" d="M29.9984 0.638184C46.2144 0.638184 59.3601 13.8615 59.3601 30.1732C59.3601 44.446 49.2955 56.3539 35.9161 59.1082L34.2648 59.3616L35.9787 58.731C45.0227 54.8827 51.3686 45.8743 51.3686 35.3749C51.3686 21.3757 40.0867 10.0272 26.1699 10.0272C13.1225 10.0272 2.39139 20.0015 1.10075 32.7833L1.00757 34.639L0.787995 33.193C0.687782 32.2001 0.636719 31.1927 0.636719 30.1732C0.636719 13.8615 13.7825 0.638184 29.9984 0.638184Z" fill="#178F84"/>
<path fill-rule="evenodd" clip-rule="evenodd" d="M24.892 58.7233C13.259 58.7233 3.82812 49.3805 3.82812 37.8561C3.82812 27.7721 11.0486 19.3587 20.6466 17.4129L21.8313 17.2339L20.6019 17.6796C14.1137 20.3983 9.56131 26.7629 9.56131 34.181C9.56131 44.0717 17.6543 52.0894 27.6385 52.0894C36.9985 52.0894 44.6971 45.0427 45.6226 36.012L45.6896 34.7009L45.8473 35.7226C45.9188 36.4241 45.9558 37.1358 45.9558 37.8561C45.9558 49.3805 36.5249 58.7233 24.892 58.7233Z" fill="#73E9DD"/>
</svg>
