<svg width="120" height="37" viewBox="0 0 120 37" fill="none" xmlns="http://www.w3.org/2000/svg">
<path d="M0.699281 35.9462C0.605948 35.9462 0.526615 35.9135 0.461281 35.8482C0.395948 35.7922 0.363281 35.7129 0.363281 35.6102V32.5582C0.363281 32.4649 0.395948 32.3855 0.461281 32.3202C0.526615 32.2549 0.605948 32.2222 0.699281 32.2222H0.979281C1.41795 32.2222 1.73528 31.8209 1.93128 31.0182C2.13661 30.2155 2.23928 29.0302 2.23928 27.4622V24.5362C2.23928 24.4429 2.27195 24.3635 2.33728 24.2982C2.40261 24.2329 2.48195 24.2002 2.57528 24.2002H8.62328C8.72595 24.2002 8.80995 24.2329 8.87528 24.2982C8.94061 24.3635 8.97328 24.4475 8.97328 24.5502V32.2222H9.64528C9.73861 32.2222 9.81795 32.2549 9.88328 32.3202C9.95795 32.3855 9.99528 32.4649 9.99528 32.5582V35.6102C9.99528 35.7035 9.96262 35.7829 9.89728 35.8482C9.83195 35.9135 9.74795 35.9462 9.64528 35.9462H8.35728C8.26395 35.9462 8.18462 35.9135 8.11928 35.8482C8.05395 35.7922 8.02128 35.7129 8.02128 35.6102V34.0002H2.33728V35.6102C2.33728 35.7129 2.30461 35.7922 2.23928 35.8482C2.18328 35.9135 2.10395 35.9462 2.00128 35.9462H0.699281ZM6.99928 32.2222V25.9782H4.15728V27.7142C4.15728 29.9075 3.90061 31.4102 3.38728 32.2222H6.99928Z" fill="#B3B3B3"/>
<path d="M14.5186 34.1402C13.4733 34.1402 12.6426 33.8415 12.0266 33.2442C11.4199 32.6469 11.0979 31.7975 11.0606 30.6962L11.0466 30.3462C11.0466 29.1795 11.3499 28.2602 11.9566 27.5882C12.5726 26.9162 13.4219 26.5802 14.5046 26.5802C15.6153 26.5802 16.4693 26.9162 17.0666 27.5882C17.6733 28.2602 17.9766 29.1562 17.9766 30.2762V30.5702C17.9766 30.6635 17.9439 30.7429 17.8786 30.8082C17.8133 30.8735 17.7293 30.9062 17.6266 30.9062H12.9786V31.0182C12.9973 31.5409 13.1373 31.9749 13.3986 32.3202C13.6693 32.6562 14.0379 32.8242 14.5046 32.8242C15.0366 32.8242 15.4706 32.6095 15.8066 32.1802C15.8906 32.0775 15.9559 32.0169 16.0026 31.9982C16.0493 31.9702 16.1286 31.9562 16.2406 31.9562H17.4726C17.5566 31.9562 17.6266 31.9795 17.6826 32.0262C17.7479 32.0729 17.7806 32.1382 17.7806 32.2222C17.7806 32.4462 17.6453 32.7122 17.3746 33.0202C17.1133 33.3189 16.7353 33.5802 16.2406 33.8042C15.7459 34.0282 15.1719 34.1402 14.5186 34.1402ZM16.0446 29.7162V29.6882C16.0446 29.1375 15.9046 28.6989 15.6246 28.3722C15.3539 28.0362 14.9806 27.8682 14.5046 27.8682C14.0286 27.8682 13.6553 28.0362 13.3846 28.3722C13.1139 28.6989 12.9786 29.1375 12.9786 29.6882V29.7162H16.0446Z" fill="#B3B3B3"/>
<path d="M19.17 34.0002C19.0767 34.0002 18.9927 33.9675 18.918 33.9022C18.8527 33.8275 18.82 33.7435 18.82 33.6502V32.7542C18.82 32.6609 18.848 32.5862 18.904 32.5302C18.9693 32.4742 19.0487 32.4415 19.142 32.4322C19.5527 32.4042 19.8467 32.1195 20.024 31.5782C20.2013 31.0369 20.29 30.1595 20.29 28.9462V27.0562C20.29 26.9535 20.3226 26.8742 20.388 26.8182C20.4533 26.7529 20.5327 26.7202 20.626 26.7202H25.624C25.7267 26.7202 25.806 26.7529 25.862 26.8182C25.9273 26.8742 25.96 26.9535 25.96 27.0562V33.6642C25.96 33.7575 25.9273 33.8369 25.862 33.9022C25.806 33.9675 25.7267 34.0002 25.624 34.0002H24.434C24.3407 34.0002 24.2613 33.9675 24.196 33.9022C24.1307 33.8369 24.098 33.7575 24.098 33.6642V28.2182H22.068V29.1562C22.068 30.3695 21.9747 31.3262 21.788 32.0262C21.6013 32.7169 21.298 33.2209 20.878 33.5382C20.4673 33.8462 19.898 34.0002 19.17 34.0002Z" fill="#B3B3B3"/>
<path d="M31.0772 34.1402C29.9759 34.1402 29.1265 33.8602 28.5292 33.3002C27.9319 32.7402 27.6099 31.9655 27.5632 30.9762L27.5492 30.3602L27.5632 29.7442C27.6099 28.7642 27.9365 27.9942 28.5432 27.4342C29.1499 26.8649 29.9945 26.5802 31.0772 26.5802C32.1505 26.5802 32.9905 26.8649 33.5972 27.4342C34.2039 27.9942 34.5305 28.7642 34.5772 29.7442C34.5865 29.8562 34.5912 30.0615 34.5912 30.3602C34.5912 30.6589 34.5865 30.8642 34.5772 30.9762C34.5305 31.9655 34.2085 32.7402 33.6112 33.3002C33.0139 33.8602 32.1692 34.1402 31.0772 34.1402ZM31.0772 32.7262C31.5719 32.7262 31.9499 32.5722 32.2112 32.2642C32.4819 31.9562 32.6265 31.5035 32.6452 30.9062C32.6545 30.8129 32.6592 30.6309 32.6592 30.3602C32.6592 30.0895 32.6545 29.9075 32.6452 29.8142C32.6265 29.2169 32.4819 28.7642 32.2112 28.4562C31.9405 28.1389 31.5625 27.9802 31.0772 27.9802C30.5825 27.9802 30.1999 28.1389 29.9292 28.4562C29.6585 28.7642 29.5139 29.2169 29.4952 29.8142L29.4812 30.3602L29.4952 30.9062C29.5139 31.5035 29.6585 31.9562 29.9292 32.2642C30.1999 32.5722 30.5825 32.7262 31.0772 32.7262Z" fill="#B3B3B3"/>
<path d="M39.6776 36.6602C39.5842 36.6602 39.5049 36.6275 39.4396 36.5622C39.3742 36.5062 39.3416 36.4269 39.3416 36.3242V27.0562C39.3416 26.9535 39.3742 26.8742 39.4396 26.8182C39.5049 26.7529 39.5842 26.7202 39.6776 26.7202H40.7976C40.9002 26.7202 40.9842 26.7529 41.0496 26.8182C41.1149 26.8835 41.1476 26.9629 41.1476 27.0562V27.6162C41.6422 26.9255 42.3842 26.5802 43.3736 26.5802C44.3162 26.5802 45.0396 26.8789 45.5436 27.4762C46.0476 28.0642 46.3182 28.8575 46.3556 29.8562C46.3649 29.9682 46.3696 30.1362 46.3696 30.3602C46.3696 30.5842 46.3649 30.7522 46.3556 30.8642C46.3276 31.8442 46.0569 32.6375 45.5436 33.2442C45.0396 33.8415 44.3162 34.1402 43.3736 34.1402C42.4402 34.1402 41.7262 33.8089 41.2316 33.1462V36.3242C41.2316 36.4269 41.1989 36.5062 41.1336 36.5622C41.0776 36.6275 40.9982 36.6602 40.8956 36.6602H39.6776ZM42.8416 32.6282C43.8402 32.6282 44.3722 32.0122 44.4376 30.7802C44.4469 30.6869 44.4516 30.5469 44.4516 30.3602C44.4516 30.1735 44.4469 30.0335 44.4376 29.9402C44.3722 28.7082 43.8402 28.0922 42.8416 28.0922C42.3096 28.0922 41.9129 28.2649 41.6516 28.6102C41.3902 28.9555 41.2502 29.3755 41.2316 29.8702C41.2222 29.9822 41.2176 30.1595 41.2176 30.4022C41.2176 30.6449 41.2222 30.8269 41.2316 30.9482C41.2502 31.4149 41.3949 31.8115 41.6656 32.1382C41.9362 32.4649 42.3282 32.6282 42.8416 32.6282Z" fill="#B3B3B3"/>
<path d="M54.0944 26.7202C54.1691 26.7202 54.2344 26.7482 54.2904 26.8042C54.3557 26.8602 54.3884 26.9255 54.3884 27.0002C54.3884 27.0842 54.3697 27.1589 54.3324 27.2242L51.6724 33.5802C51.3831 34.2615 51.1217 34.8075 50.8884 35.2182C50.6551 35.6382 50.3657 35.9835 50.0204 36.2542C49.6751 36.5249 49.2597 36.6602 48.7744 36.6602H48.1444C48.0511 36.6602 47.9717 36.6275 47.9064 36.5622C47.8411 36.4969 47.8084 36.4175 47.8084 36.3242V35.5122C47.8084 35.4189 47.8411 35.3395 47.9064 35.2742C47.9717 35.2089 48.0511 35.1762 48.1444 35.1762H48.5784C48.8491 35.1762 49.0544 35.0969 49.1944 34.9382C49.3344 34.7795 49.5071 34.4622 49.7124 33.9862L49.8524 33.6362L47.1084 27.2242C47.0711 27.1402 47.0524 27.0749 47.0524 27.0282C47.0524 26.9442 47.0804 26.8742 47.1364 26.8182C47.2017 26.7529 47.2764 26.7202 47.3604 26.7202H48.4944C48.6717 26.7202 48.7977 26.8089 48.8724 26.9862L50.7204 31.5642L52.6244 26.9862C52.6897 26.8089 52.8157 26.7202 53.0024 26.7202H54.0944Z" fill="#B3B3B3"/>
<path d="M62.3721 33.5662C62.4188 33.6315 62.4421 33.6922 62.4421 33.7482C62.4421 33.8229 62.4141 33.8835 62.3581 33.9302C62.3021 33.9769 62.2321 34.0002 62.1481 34.0002H60.7061C60.6128 34.0002 60.5381 33.9862 60.4821 33.9582C60.4261 33.9209 60.3701 33.8649 60.3141 33.7902L58.4941 31.0602H57.4721V33.6642C57.4721 33.7575 57.4395 33.8369 57.3741 33.9022C57.3181 33.9675 57.2388 34.0002 57.1361 34.0002H55.9741C55.8808 34.0002 55.8015 33.9675 55.7361 33.9022C55.6708 33.8369 55.6381 33.7575 55.6381 33.6642V27.0562C55.6381 26.9535 55.6708 26.8742 55.7361 26.8182C55.8015 26.7529 55.8808 26.7202 55.9741 26.7202H57.1361C57.2388 26.7202 57.3181 26.7529 57.3741 26.8182C57.4395 26.8742 57.4721 26.9535 57.4721 27.0562V29.5482H58.5081L60.1741 26.9442C60.2301 26.8695 60.2861 26.8135 60.3421 26.7762C60.3981 26.7389 60.4681 26.7202 60.5521 26.7202H61.8401C61.9335 26.7202 62.0081 26.7435 62.0641 26.7902C62.1201 26.8369 62.1481 26.8975 62.1481 26.9722C62.1481 27.0002 62.1248 27.0609 62.0781 27.1542L60.0901 30.2342L62.3721 33.5662Z" fill="#B3B3B3"/>
<path d="M5.54503 7.9384C5.40285 7.9384 5.20538 7.9463 4.95261 7.9621C4.69985 7.9779 4.47078 8.00159 4.26541 8.03319V16.8247C4.26541 17.0142 4.23381 17.1406 4.17062 17.2038C4.12323 17.267 3.96525 17.2986 3.69669 17.2986H0.545025C0.181675 17.2986 0 17.1406 0 16.8247V6.65878C0 6.15325 0.0789891 5.7504 0.236967 5.45025C0.394945 5.13429 0.750396 4.91312 1.30332 4.78674C1.4613 4.75514 1.69827 4.72355 2.01422 4.69195C2.33018 4.64456 2.66983 4.61296 3.03318 4.59716C3.41233 4.56557 3.79147 4.54187 4.17062 4.52607C4.54977 4.51028 4.87362 4.50238 5.14219 4.50238C6.29543 4.50238 7.30649 4.61296 8.17537 4.83413C9.04425 5.0395 9.76305 5.39495 10.3318 5.90048C10.9163 6.39022 11.3507 7.03793 11.6351 7.84361C11.9195 8.63351 12.0616 9.60507 12.0616 10.7583V16.8247C12.0616 17.0142 12.03 17.1406 11.9668 17.2038C11.9194 17.267 11.7615 17.2986 11.4929 17.2986H8.29385C7.9305 17.2986 7.74883 17.1406 7.74883 16.8247V10.3555C7.74883 9.54978 7.59085 8.94946 7.27489 8.55452C6.97473 8.14377 6.39811 7.9384 5.54503 7.9384Z" fill="white"/>
<path d="M27.1955 11.019C27.1955 13.0727 26.6821 14.6762 25.6552 15.8294C24.6284 16.9826 23.0407 17.5593 20.8922 17.5593C19.7705 17.5593 18.8148 17.4092 18.0249 17.109C17.235 16.7931 16.5873 16.3586 16.0817 15.8057C15.592 15.237 15.2287 14.5498 14.9917 13.7441C14.7705 12.9384 14.6599 12.0379 14.6599 11.0427C14.6599 10.0474 14.7942 9.14693 15.0628 8.34125C15.3313 7.53556 15.7263 6.84835 16.2476 6.27963C16.7689 5.71091 17.4167 5.27647 18.1907 4.97631C18.9806 4.66035 19.889 4.50238 20.9159 4.50238C23.0012 4.50238 24.5652 5.0869 25.6078 6.25593C26.6663 7.40917 27.1955 8.99685 27.1955 11.019ZM22.6931 11.0664C22.6931 9.12324 22.1007 8.15167 20.9159 8.15167C19.731 8.15167 19.1386 9.09954 19.1386 10.9953C19.1386 12.0379 19.2887 12.7883 19.5889 13.2465C19.889 13.6888 20.3314 13.91 20.9159 13.91C21.5004 13.91 21.9427 13.6651 22.2429 13.1754C22.543 12.6698 22.6931 11.9668 22.6931 11.0664Z" fill="white"/>
<path d="M38.7628 16.6114C38.7786 16.722 38.7786 16.8168 38.7628 16.8958C38.7628 16.959 38.668 17.0221 38.4785 17.0853C37.815 17.2907 37.1673 17.4171 36.5353 17.4645C35.9034 17.5277 35.3189 17.5593 34.7818 17.5593C33.3442 17.5593 32.3015 17.2512 31.6538 16.6351C31.0219 16.019 30.7059 15.1659 30.7059 14.0759V7.9147H29.0472C28.8576 7.9147 28.7391 7.86731 28.6917 7.77252C28.6443 7.66194 28.6206 7.54346 28.6206 7.41707V5.73461C28.6206 5.57663 28.6364 5.47394 28.668 5.42655C28.7154 5.36336 28.8339 5.30807 29.0235 5.26067L30.7059 4.83413V2.65403C30.7059 2.43286 30.7533 2.28278 30.8481 2.20379C30.9429 2.10901 31.0772 2.03792 31.251 1.99052L34.4026 1.01896C34.5764 0.971565 34.7107 0.987362 34.8055 1.06635C34.9161 1.12954 34.9714 1.26382 34.9714 1.4692V4.85783H37.6254C37.8308 4.85783 37.9413 4.88942 37.9571 4.95261C37.9887 5.01581 38.0045 5.12639 38.0045 5.28437V7.41707C38.0045 7.59085 37.9966 7.71723 37.9808 7.79622C37.965 7.87521 37.8466 7.9147 37.6254 7.9147H34.9714V12.9147C34.9714 13.3097 35.074 13.5782 35.2794 13.7204C35.4848 13.8626 35.8086 13.9337 36.251 13.9337C36.5037 13.9337 36.8118 13.9179 37.1752 13.8863C37.5543 13.8389 37.8387 13.7994 38.0282 13.7678C38.1546 13.752 38.2415 13.7599 38.2889 13.7915C38.3521 13.8231 38.3916 13.9021 38.4074 14.0285L38.7628 16.6114Z" fill="white"/>
<path d="M52.9827 11.019C52.9827 11.8721 52.8642 12.6935 52.6273 13.4834C52.4061 14.2733 52.0348 14.9763 51.5135 15.5924C51.008 16.1928 50.3366 16.6746 49.4993 17.0379C48.6778 17.3855 47.6667 17.5593 46.4661 17.5593C45.5498 17.5593 44.6099 17.4803 43.6462 17.3223C42.6983 17.1801 41.8532 16.9274 41.1107 16.564C40.8579 16.4376 40.7078 16.3033 40.6604 16.1612C40.613 16.019 40.5893 15.8531 40.5893 15.6635V0.521328C40.5893 0.315956 40.6288 0.181675 40.7078 0.118483C40.7868 0.0394943 40.9448 0 41.1817 0H44.3097C44.5309 0 44.681 0.0315958 44.76 0.0947872C44.8547 0.157978 44.9021 0.300158 44.9021 0.521328V4.78674C45.2339 4.69195 45.613 4.62086 46.0396 4.57347C46.4661 4.51028 46.9401 4.47868 47.4614 4.47868C48.4566 4.47868 49.3018 4.65246 49.9969 5.00001C50.7078 5.34756 51.2765 5.82149 51.7031 6.42181C52.1454 7.00633 52.4693 7.70143 52.6747 8.50712C52.88 9.29701 52.9827 10.1343 52.9827 11.019ZM48.504 11.019C48.504 10.0237 48.3145 9.29701 47.9353 8.83888C47.572 8.38074 47.0585 8.15167 46.395 8.15167C46.2528 8.15167 46.0238 8.16747 45.7078 8.19907C45.3919 8.23066 45.1233 8.28595 44.9021 8.36494V13.7441C45.1233 13.8073 45.3603 13.8547 45.613 13.8863C45.8816 13.9021 46.0791 13.91 46.2055 13.91C46.9322 13.91 47.493 13.6888 47.8879 13.2465C48.2987 12.8041 48.504 12.0616 48.504 11.019Z" fill="white"/>
<path d="M66.7224 15.545C66.7224 15.7662 66.6987 15.9637 66.6513 16.1375C66.6039 16.2954 66.4301 16.4534 66.13 16.6114C65.7666 16.7852 65.3638 16.9353 64.9214 17.0616C64.4949 17.188 64.0525 17.2907 63.5944 17.3697C63.1363 17.4487 62.6702 17.504 62.1963 17.5356C61.7382 17.5672 61.3037 17.583 60.893 17.583C59.8029 17.583 58.8867 17.4882 58.1442 17.2986C57.4017 17.0932 56.8013 16.8168 56.3432 16.4692C55.9009 16.1059 55.5849 15.6793 55.3953 15.1896C55.2058 14.6999 55.111 14.1706 55.111 13.6019C55.111 12.2117 55.5454 11.1612 56.4143 10.4503C57.2832 9.72355 58.4443 9.3602 59.8977 9.3602H62.4807V9.02845C62.4807 8.91787 62.4649 8.79148 62.4333 8.6493C62.4017 8.50712 62.3227 8.37284 62.1963 8.24646C62.0857 8.12008 61.9198 8.01739 61.6987 7.9384C61.4933 7.85941 61.2168 7.81992 60.8693 7.81992C60.6481 7.81992 60.3953 7.83572 60.111 7.86731C59.8266 7.88311 59.5265 7.90681 59.2105 7.9384C58.8946 7.97 58.5786 8.00949 58.2626 8.05688C57.9625 8.10428 57.686 8.15957 57.4333 8.22276C57.2121 8.28595 57.062 8.28595 56.983 8.22276C56.904 8.15957 56.8487 8.04109 56.8171 7.86731L56.3669 5.82939C56.3195 5.60822 56.3195 5.46604 56.3669 5.40285C56.4143 5.32386 56.5012 5.26067 56.6276 5.21328C57.3859 4.96051 58.1521 4.77884 58.9261 4.66825C59.7002 4.54187 60.5375 4.47868 61.438 4.47868C63.2389 4.47868 64.566 4.84993 65.419 5.59243C66.2879 6.31913 66.7224 7.44077 66.7224 8.95736V15.545ZM62.457 11.8721H61.0588C60.8851 11.8721 60.7113 11.8879 60.5375 11.9195C60.3637 11.951 60.2058 12.0142 60.0636 12.109C59.9214 12.188 59.8029 12.3144 59.7081 12.4882C59.6133 12.6461 59.566 12.8594 59.566 13.128C59.566 13.5071 59.7002 13.7836 59.9688 13.9574C60.2532 14.1311 60.6244 14.218 61.0825 14.218C61.1931 14.218 61.3985 14.2022 61.6987 14.1706C62.0146 14.139 62.2674 14.0759 62.457 13.9811V11.8721Z" fill="white"/>
<path d="M81.7131 15.6635C81.7131 15.8531 81.6894 16.019 81.642 16.1612C81.5946 16.3033 81.4446 16.4376 81.1918 16.564C80.8285 16.7378 80.4177 16.8879 79.9596 17.0142C79.5172 17.1406 79.0512 17.2433 78.5615 17.3223C78.0717 17.4013 77.582 17.4566 77.0923 17.4882C76.6025 17.5356 76.1286 17.5593 75.6705 17.5593C74.4382 17.5593 73.4114 17.3934 72.5899 17.0616C71.7842 16.7141 71.1365 16.256 70.6468 15.6872C70.157 15.1027 69.8095 14.4155 69.6041 13.6256C69.4145 12.8357 69.3197 11.9905 69.3197 11.0901C69.3197 10.2054 69.4224 9.3681 69.6278 8.57821C69.849 7.77252 70.1886 7.06952 70.6468 6.4692C71.1049 5.85309 71.6894 5.37126 72.4003 5.02371C73.1112 4.66036 73.9564 4.47868 74.9359 4.47868C75.4572 4.47868 75.8837 4.50238 76.2155 4.54977C76.563 4.58137 76.958 4.63666 77.4003 4.71565V0.521328C77.4003 0.315956 77.4398 0.181675 77.5188 0.118483C77.5978 0.0394943 77.7558 0 77.9927 0H81.1207C81.3419 0 81.492 0.0315958 81.571 0.0947872C81.6657 0.157978 81.7131 0.300158 81.7131 0.521328V15.6635ZM73.7984 11.1612C73.7984 12.2038 73.9959 12.9226 74.3908 13.3176C74.8016 13.7125 75.3703 13.91 76.097 13.91C76.2234 13.91 76.413 13.9021 76.6657 13.8863C76.9343 13.8547 77.1792 13.8073 77.4003 13.7441V8.34125C77.116 8.26226 76.8316 8.21486 76.5472 8.19907C76.2629 8.16747 76.0496 8.15167 75.9074 8.15167C75.2439 8.15167 74.7226 8.40444 74.3435 8.90997C73.9801 9.4155 73.7984 10.1659 73.7984 11.1612Z" fill="white"/>
<path d="M91.7324 16.564C91.764 16.7378 91.7561 16.8563 91.7087 16.9195C91.6613 16.9826 91.527 17.0537 91.3059 17.1327C91.1163 17.1959 90.903 17.2512 90.666 17.2986C90.4291 17.3618 90.1763 17.4092 89.9078 17.4408C89.655 17.4724 89.3943 17.4961 89.1258 17.5119C88.873 17.5435 88.636 17.5593 88.4149 17.5593C87.8935 17.5593 87.4117 17.504 86.9694 17.3934C86.5428 17.2986 86.1716 17.109 85.8556 16.8247C85.5555 16.5245 85.3185 16.1217 85.1447 15.6161C84.9867 15.1106 84.9077 14.455 84.9077 13.6493V0.473934C84.9077 0.221169 84.9551 0.0789892 85.0499 0.047393C85.1605 0.0157978 85.3106 0 85.5002 0H88.6044C88.794 0 88.9362 0.0315958 89.031 0.0947872C89.1258 0.14218 89.1731 0.260663 89.1731 0.450237V12.8436C89.1731 13.2228 89.2284 13.5071 89.339 13.6967C89.4496 13.8863 89.7103 13.9811 90.121 13.9811C90.2316 13.9811 90.3817 13.9732 90.5713 13.9574C90.7608 13.9416 90.9109 13.9258 91.0215 13.91C91.1953 13.8784 91.3059 13.8863 91.3532 13.9337C91.4006 13.9653 91.4322 14.0601 91.448 14.218L91.7324 16.564Z" fill="white"/>
<path d="M104.535 15.545C104.535 15.7662 104.512 15.9637 104.464 16.1375C104.417 16.2954 104.243 16.4534 103.943 16.6114C103.58 16.7852 103.177 16.9353 102.734 17.0616C102.308 17.188 101.865 17.2907 101.407 17.3697C100.949 17.4487 100.483 17.504 100.009 17.5356C99.5511 17.5672 99.1166 17.583 98.7059 17.583C97.6158 17.583 96.6996 17.4882 95.9571 17.2986C95.2146 17.0932 94.6143 16.8168 94.1561 16.4692C93.7138 16.1059 93.3978 15.6793 93.2083 15.1896C93.0187 14.6999 92.9239 14.1706 92.9239 13.6019C92.9239 12.2117 93.3583 11.1612 94.2272 10.4503C95.0961 9.72355 96.2572 9.3602 97.7106 9.3602H100.294V9.02845C100.294 8.91787 100.278 8.79148 100.246 8.6493C100.215 8.50712 100.136 8.37284 100.009 8.24646C99.8986 8.12008 99.7328 8.01739 99.5116 7.9384C99.3062 7.85941 99.0297 7.81992 98.6822 7.81992C98.461 7.81992 98.2083 7.83572 97.9239 7.86731C97.6395 7.88311 97.3394 7.90681 97.0234 7.9384C96.7075 7.97 96.3915 8.00949 96.0756 8.05688C95.7754 8.10428 95.4989 8.15957 95.2462 8.22276C95.025 8.28595 94.8749 8.28595 94.7959 8.22276C94.7169 8.15957 94.6617 8.04109 94.6301 7.86731L94.1798 5.82939C94.1324 5.60822 94.1324 5.46604 94.1798 5.40285C94.2272 5.32386 94.3141 5.26067 94.4405 5.21328C95.1988 4.96051 95.965 4.77884 96.7391 4.66825C97.5132 4.54187 98.3504 4.47868 99.2509 4.47868C101.052 4.47868 102.379 4.84993 103.232 5.59243C104.101 6.31913 104.535 7.44077 104.535 8.95736V15.545ZM100.27 11.8721H98.8718C98.698 11.8721 98.5242 11.8879 98.3504 11.9195C98.1767 11.951 98.0187 12.0142 97.8765 12.109C97.7343 12.188 97.6158 12.3144 97.5211 12.4882C97.4263 12.6461 97.3789 12.8594 97.3789 13.128C97.3789 13.5071 97.5132 13.7836 97.7817 13.9574C98.0661 14.1311 98.4373 14.218 98.8955 14.218C99.0061 14.218 99.2114 14.2022 99.5116 14.1706C99.8275 14.139 100.08 14.0759 100.27 13.9811V11.8721Z" fill="white"/>
<path d="M120 11.019C120 11.8721 119.882 12.6935 119.645 13.4834C119.423 14.2733 119.052 14.9763 118.531 15.5924C118.025 16.1928 117.354 16.6746 116.517 17.0379C115.695 17.3855 114.684 17.5593 113.483 17.5593C112.567 17.5593 111.627 17.4803 110.663 17.3223C109.716 17.1801 108.87 16.9274 108.128 16.564C107.875 16.4376 107.725 16.3033 107.678 16.1612C107.63 16.019 107.607 15.8531 107.607 15.6635V0.521328C107.607 0.315956 107.646 0.181675 107.725 0.118483C107.804 0.0394943 107.962 0 108.199 0H111.327C111.548 0 111.698 0.0315958 111.777 0.0947872C111.872 0.157978 111.919 0.300158 111.919 0.521328V4.78674C112.251 4.69195 112.63 4.62086 113.057 4.57347C113.483 4.51028 113.957 4.47868 114.479 4.47868C115.474 4.47868 116.319 4.65246 117.014 5.00001C117.725 5.34756 118.294 5.82149 118.72 6.42181C119.163 7.00633 119.487 7.70143 119.692 8.50712C119.897 9.29701 120 10.1343 120 11.019ZM115.521 11.019C115.521 10.0237 115.332 9.29701 114.953 8.83888C114.589 8.38074 114.076 8.15167 113.412 8.15167C113.27 8.15167 113.041 8.16747 112.725 8.19907C112.409 8.23066 112.141 8.28595 111.919 8.36494V13.7441C112.141 13.8073 112.378 13.8547 112.63 13.8863C112.899 13.9021 113.096 13.91 113.223 13.91C113.949 13.91 114.51 13.6888 114.905 13.2465C115.316 12.8041 115.521 12.0616 115.521 11.019Z" fill="white"/>
</svg>
